<svg width="2567" height="245" viewBox="0 0 2567 245" fill="none" xmlns="http://www.w3.org/2000/svg">
<path d="M0.380189 240V4.79998H54.8122V240H0.380189ZM223.19 244.032C205.046 244.032 188.134 241.12 172.454 235.296C156.998 229.248 143.558 220.736 132.134 209.76C120.71 198.784 111.75 185.904 105.254 171.12C98.9822 156.336 95.8462 140.096 95.8462 122.4C95.8462 104.704 98.9822 88.464 105.254 73.68C111.75 58.896 120.71 46.016 132.134 35.04C143.782 24.064 157.334 15.664 172.79 9.83998C188.246 3.79199 205.158 0.767996 223.526 0.767996C243.91 0.767996 262.278 4.352 278.63 11.52C295.206 18.464 309.094 28.768 320.294 42.432L285.35 74.688C277.286 65.504 268.326 58.672 258.47 54.192C248.614 49.488 237.862 47.136 226.214 47.136C215.238 47.136 205.158 48.928 195.974 52.512C186.79 56.096 178.838 61.248 172.118 67.968C165.398 74.688 160.134 82.64 156.326 91.824C152.742 101.008 150.95 111.2 150.95 122.4C150.95 133.6 152.742 143.792 156.326 152.976C160.134 162.16 165.398 170.112 172.118 176.832C178.838 183.552 186.79 188.704 195.974 192.288C205.158 195.872 215.238 197.664 226.214 197.664C237.862 197.664 248.614 195.424 258.47 190.944C268.326 186.24 277.286 179.184 285.35 169.776L320.294 202.032C309.094 215.696 295.206 226.112 278.63 233.28C262.278 240.448 243.798 244.032 223.19 244.032ZM357.052 240V4.79998H458.86C479.916 4.79998 498.06 8.27199 513.292 15.216C528.524 21.936 540.284 31.68 548.572 44.448C556.86 57.216 561.004 72.448 561.004 90.144C561.004 107.616 556.86 122.736 548.572 135.504C540.284 148.048 528.524 157.68 513.292 164.4C498.06 171.12 479.916 174.48 458.86 174.48H387.292L411.484 150.624V240H357.052ZM506.572 240L447.772 154.656H505.9L565.372 240H506.572ZM411.484 156.672L387.292 131.136H455.836C472.636 131.136 485.18 127.552 493.468 120.384C501.756 112.992 505.9 102.912 505.9 90.144C505.9 77.152 501.756 67.072 493.468 59.904C485.18 52.736 472.636 49.152 455.836 49.152H387.292L411.484 23.28V156.672ZM604.13 240V4.79998H710.978C736.514 4.79998 759.026 9.72799 778.514 19.584C798.002 29.216 813.234 42.768 824.21 60.24C835.186 77.712 840.674 98.432 840.674 122.4C840.674 146.144 835.186 166.864 824.21 184.56C813.234 202.032 798.002 215.696 778.514 225.552C759.026 235.184 736.514 240 710.978 240H604.13ZM658.562 195.312H708.29C723.97 195.312 737.522 192.4 748.946 186.576C760.594 180.528 769.554 172.016 775.826 161.04C782.322 150.064 785.57 137.184 785.57 122.4C785.57 107.392 782.322 94.512 775.826 83.76C769.554 72.784 760.594 64.384 748.946 58.56C737.522 52.512 723.97 49.488 708.29 49.488H658.562V195.312ZM1763.66 240V204.72L1854.38 119.04C1861.55 112.544 1866.81 106.72 1870.17 101.568C1873.53 96.416 1875.77 91.712 1876.89 87.456C1878.23 83.2 1878.91 79.28 1878.91 75.696C1878.91 66.288 1875.66 59.12 1869.16 54.192C1862.89 49.04 1853.59 46.464 1841.27 46.464C1831.42 46.464 1822.23 48.368 1813.72 52.176C1805.43 55.984 1798.38 61.92 1792.55 69.984L1752.91 44.448C1761.87 31.008 1774.41 20.368 1790.54 12.528C1806.67 4.68799 1825.26 0.767996 1846.31 0.767996C1863.79 0.767996 1879.02 3.67999 1892.01 9.50398C1905.23 15.104 1915.42 23.056 1922.59 33.36C1929.98 43.664 1933.67 55.984 1933.67 70.32C1933.67 77.936 1932.67 85.552 1930.65 93.168C1928.86 100.56 1925.05 108.4 1919.23 116.688C1913.63 124.976 1905.34 134.272 1894.36 144.576L1819.1 215.472L1808.68 195.648H1941.4V240H1763.66ZM2064.66 244.032C2045.4 244.032 2028.15 239.328 2012.92 229.92C1997.69 220.288 1985.7 206.4 1976.97 188.256C1968.23 170.112 1963.86 148.16 1963.86 122.4C1963.86 96.64 1968.23 74.688 1976.97 56.544C1985.7 38.4 1997.69 24.624 2012.92 15.216C2028.15 5.58399 2045.4 0.767996 2064.66 0.767996C2084.15 0.767996 2101.4 5.58399 2116.41 15.216C2131.64 24.624 2143.62 38.4 2152.36 56.544C2161.09 74.688 2165.46 96.64 2165.46 122.4C2165.46 148.16 2161.09 170.112 2152.36 188.256C2143.62 206.4 2131.64 220.288 2116.41 229.92C2101.4 239.328 2084.15 244.032 2064.66 244.032ZM2064.66 198C2073.85 198 2081.8 195.424 2088.52 190.272C2095.46 185.12 2100.84 176.944 2104.65 165.744C2108.68 154.544 2110.69 140.096 2110.69 122.4C2110.69 104.704 2108.68 90.256 2104.65 79.056C2100.84 67.856 2095.46 59.68 2088.52 54.528C2081.8 49.376 2073.85 46.8 2064.66 46.8C2055.7 46.8 2047.75 49.376 2040.81 54.528C2034.09 59.68 2028.71 67.856 2024.68 79.056C2020.87 90.256 2018.97 104.704 2018.97 122.4C2018.97 140.096 2020.87 154.544 2024.68 165.744C2028.71 176.944 2034.09 185.12 2040.81 190.272C2047.75 195.424 2055.7 198 2064.66 198ZM2188.58 240V204.72L2279.3 119.04C2286.47 112.544 2291.73 106.72 2295.09 101.568C2298.45 96.416 2300.69 91.712 2301.81 87.456C2303.16 83.2 2303.83 79.28 2303.83 75.696C2303.83 66.288 2300.58 59.12 2294.08 54.192C2287.81 49.04 2278.52 46.464 2266.2 46.464C2256.34 46.464 2247.16 48.368 2238.64 52.176C2230.36 55.984 2223.3 61.92 2217.48 69.984L2177.83 44.448C2186.79 31.008 2199.33 20.368 2215.46 12.528C2231.59 4.68799 2250.18 0.767996 2271.24 0.767996C2288.71 0.767996 2303.94 3.67999 2316.93 9.50398C2330.15 15.104 2340.34 23.056 2347.51 33.36C2354.9 43.664 2358.6 55.984 2358.6 70.32C2358.6 77.936 2357.59 85.552 2355.57 93.168C2353.78 100.56 2349.97 108.4 2344.15 116.688C2338.55 124.976 2330.26 134.272 2319.28 144.576L2244.02 215.472L2233.6 195.648H2366.32V240H2188.58ZM2468.75 244.032C2452.4 244.032 2436.16 241.904 2420.03 237.648C2404.13 233.168 2390.46 226.896 2379.04 218.832L2400.54 177.168C2409.5 183.664 2419.81 188.816 2431.46 192.624C2443.33 196.432 2455.31 198.336 2467.41 198.336C2481.07 198.336 2491.82 195.648 2499.66 190.272C2507.5 184.896 2511.42 177.392 2511.42 167.76C2511.42 161.712 2509.86 156.336 2506.72 151.632C2503.58 146.928 2497.98 143.344 2489.92 140.88C2482.08 138.416 2470.99 137.184 2456.66 137.184H2396.51L2408.61 4.79998H2552.08V48.48H2428.1L2456.32 23.616L2447.92 118.032L2419.7 93.168H2469.42C2492.72 93.168 2511.42 96.416 2525.54 102.912C2539.87 109.184 2550.29 117.808 2556.78 128.784C2563.28 139.76 2566.53 152.192 2566.53 166.08C2566.53 179.968 2563.06 192.848 2556.11 204.72C2549.17 216.368 2538.42 225.888 2523.86 233.28C2509.52 240.448 2491.15 244.032 2468.75 244.032Z" fill="#3747FF"/>
<path d="M881.724 240V4.79998H936.156V240H881.724ZM1104.53 244.032C1086.39 244.032 1069.48 241.12 1053.8 235.296C1038.34 229.248 1024.9 220.736 1013.48 209.76C1002.05 198.784 993.094 185.904 986.598 171.12C980.326 156.336 977.19 140.096 977.19 122.4C977.19 104.704 980.326 88.464 986.598 73.68C993.094 58.896 1002.05 46.016 1013.48 35.04C1025.13 24.064 1038.68 15.664 1054.13 9.83998C1069.59 3.79199 1086.5 0.767996 1104.87 0.767996C1125.25 0.767996 1143.62 4.352 1159.97 11.52C1176.55 18.464 1190.44 28.768 1201.64 42.432L1166.69 74.688C1158.63 65.504 1149.67 58.672 1139.81 54.192C1129.96 49.488 1119.21 47.136 1107.56 47.136C1096.58 47.136 1086.5 48.928 1077.32 52.512C1068.13 56.096 1060.18 61.248 1053.46 67.968C1046.74 74.688 1041.48 82.64 1037.67 91.824C1034.09 101.008 1032.29 111.2 1032.29 122.4C1032.29 133.6 1034.09 143.792 1037.67 152.976C1041.48 162.16 1046.74 170.112 1053.46 176.832C1060.18 183.552 1068.13 188.704 1077.32 192.288C1086.5 195.872 1096.58 197.664 1107.56 197.664C1119.21 197.664 1129.96 195.424 1139.81 190.944C1149.67 186.24 1158.63 179.184 1166.69 169.776L1201.64 202.032C1190.44 215.696 1176.55 226.112 1159.97 233.28C1143.62 240.448 1125.14 244.032 1104.53 244.032ZM1346.03 244.032C1327.89 244.032 1310.98 241.12 1295.3 235.296C1279.84 229.248 1266.4 220.736 1254.98 209.76C1243.55 198.784 1234.59 185.904 1228.1 171.12C1221.83 156.336 1218.69 140.096 1218.69 122.4C1218.69 104.704 1221.83 88.464 1228.1 73.68C1234.59 58.896 1243.55 46.016 1254.98 35.04C1266.63 24.064 1280.18 15.664 1295.63 9.83998C1311.09 3.79199 1328 0.767996 1346.37 0.767996C1366.75 0.767996 1385.12 4.352 1401.47 11.52C1418.05 18.464 1431.94 28.768 1443.14 42.432L1408.19 74.688C1400.13 65.504 1391.17 58.672 1381.31 54.192C1371.46 49.488 1360.71 47.136 1349.06 47.136C1338.08 47.136 1328 48.928 1318.82 52.512C1309.63 56.096 1301.68 61.248 1294.96 67.968C1288.24 74.688 1282.98 82.64 1279.17 91.824C1275.59 101.008 1273.79 111.2 1273.79 122.4C1273.79 133.6 1275.59 143.792 1279.17 152.976C1282.98 162.16 1288.24 170.112 1294.96 176.832C1301.68 183.552 1309.63 188.704 1318.82 192.288C1328 195.872 1338.08 197.664 1349.06 197.664C1360.71 197.664 1371.46 195.424 1381.31 190.944C1391.17 186.24 1400.13 179.184 1408.19 169.776L1443.14 202.032C1431.94 215.696 1418.05 226.112 1401.47 233.28C1385.12 240.448 1366.64 244.032 1346.03 244.032ZM1526.32 240V49.152H1451.05V4.79998H1656.01V49.152H1580.75V240H1526.32Z" fill="black"/>
</svg>
