<svg width="1657" height="245" viewBox="0 0 1657 245" fill="none" xmlns="http://www.w3.org/2000/svg">
<path d="M0.927064 240V4.79998H55.3591V240H0.927064ZM223.737 244.032C205.593 244.032 188.681 241.12 173.001 235.296C157.545 229.248 144.105 220.736 132.681 209.76C121.257 198.784 112.297 185.904 105.801 171.12C99.5291 156.336 96.3931 140.096 96.3931 122.4C96.3931 104.704 99.5291 88.464 105.801 73.68C112.297 58.896 121.257 46.016 132.681 35.04C144.329 24.064 157.881 15.664 173.337 9.83998C188.793 3.79199 205.705 0.767996 224.073 0.767996C244.457 0.767996 262.825 4.352 279.177 11.52C295.753 18.464 309.641 28.768 320.841 42.432L285.897 74.688C277.833 65.504 268.873 58.672 259.017 54.192C249.161 49.488 238.409 47.136 226.761 47.136C215.785 47.136 205.705 48.928 196.521 52.512C187.337 56.096 179.385 61.248 172.665 67.968C165.945 74.688 160.681 82.64 156.873 91.824C153.289 101.008 151.497 111.2 151.497 122.4C151.497 133.6 153.289 143.792 156.873 152.976C160.681 162.16 165.945 170.112 172.665 176.832C179.385 183.552 187.337 188.704 196.521 192.288C205.705 195.872 215.785 197.664 226.761 197.664C238.409 197.664 249.161 195.424 259.017 190.944C268.873 186.24 277.833 179.184 285.897 169.776L320.841 202.032C309.641 215.696 295.753 226.112 279.177 233.28C262.825 240.448 244.345 244.032 223.737 244.032ZM357.599 240V4.79998H459.407C480.463 4.79998 498.607 8.27199 513.839 15.216C529.071 21.936 540.831 31.68 549.119 44.448C557.407 57.216 561.551 72.448 561.551 90.144C561.551 107.616 557.407 122.736 549.119 135.504C540.831 148.048 529.071 157.68 513.839 164.4C498.607 171.12 480.463 174.48 459.407 174.48H387.839L412.031 150.624V240H357.599ZM507.119 240L448.319 154.656H506.447L565.919 240H507.119ZM412.031 156.672L387.839 131.136H456.383C473.183 131.136 485.727 127.552 494.015 120.384C502.303 112.992 506.447 102.912 506.447 90.144C506.447 77.152 502.303 67.072 494.015 59.904C485.727 52.736 473.183 49.152 456.383 49.152H387.839L412.031 23.28V156.672ZM604.677 240V4.79998H711.525C737.061 4.79998 759.573 9.72799 779.061 19.584C798.549 29.216 813.781 42.768 824.757 60.24C835.733 77.712 841.221 98.432 841.221 122.4C841.221 146.144 835.733 166.864 824.757 184.56C813.781 202.032 798.549 215.696 779.061 225.552C759.573 235.184 737.061 240 711.525 240H604.677ZM659.109 195.312H708.837C724.517 195.312 738.069 192.4 749.493 186.576C761.141 180.528 770.101 172.016 776.373 161.04C782.869 150.064 786.117 137.184 786.117 122.4C786.117 107.392 782.869 94.512 776.373 83.76C770.101 72.784 761.141 64.384 749.493 58.56C738.069 52.512 724.517 49.488 708.837 49.488H659.109V195.312Z" fill="#3747FF"/>
<path d="M882.271 240V4.79998H936.703V240H882.271ZM1105.08 244.032C1086.94 244.032 1070.02 241.12 1054.34 235.296C1038.89 229.248 1025.45 220.736 1014.02 209.76C1002.6 198.784 993.641 185.904 987.145 171.12C980.873 156.336 977.737 140.096 977.737 122.4C977.737 104.704 980.873 88.464 987.145 73.68C993.641 58.896 1002.6 46.016 1014.02 35.04C1025.67 24.064 1039.22 15.664 1054.68 9.83998C1070.14 3.79199 1087.05 0.767996 1105.42 0.767996C1125.8 0.767996 1144.17 4.352 1160.52 11.52C1177.1 18.464 1190.98 28.768 1202.18 42.432L1167.24 74.688C1159.18 65.504 1150.22 58.672 1140.36 54.192C1130.5 49.488 1119.75 47.136 1108.1 47.136C1097.13 47.136 1087.05 48.928 1077.86 52.512C1068.68 56.096 1060.73 61.248 1054.01 67.968C1047.29 74.688 1042.02 82.64 1038.22 91.824C1034.63 101.008 1032.84 111.2 1032.84 122.4C1032.84 133.6 1034.63 143.792 1038.22 152.976C1042.02 162.16 1047.29 170.112 1054.01 176.832C1060.73 183.552 1068.68 188.704 1077.86 192.288C1087.05 195.872 1097.13 197.664 1108.1 197.664C1119.75 197.664 1130.5 195.424 1140.36 190.944C1150.22 186.24 1159.18 179.184 1167.24 169.776L1202.18 202.032C1190.98 215.696 1177.1 226.112 1160.52 233.28C1144.17 240.448 1125.69 244.032 1105.08 244.032ZM1346.58 244.032C1328.44 244.032 1311.52 241.12 1295.84 235.296C1280.39 229.248 1266.95 220.736 1255.52 209.76C1244.1 198.784 1235.14 185.904 1228.64 171.12C1222.37 156.336 1219.24 140.096 1219.24 122.4C1219.24 104.704 1222.37 88.464 1228.64 73.68C1235.14 58.896 1244.1 46.016 1255.52 35.04C1267.17 24.064 1280.72 15.664 1296.18 9.83998C1311.64 3.79199 1328.55 0.767996 1346.92 0.767996C1367.3 0.767996 1385.67 4.352 1402.02 11.52C1418.6 18.464 1432.48 28.768 1443.68 42.432L1408.74 74.688C1400.68 65.504 1391.72 58.672 1381.86 54.192C1372 49.488 1361.25 47.136 1349.6 47.136C1338.63 47.136 1328.55 48.928 1319.36 52.512C1310.18 56.096 1302.23 61.248 1295.51 67.968C1288.79 74.688 1283.52 82.64 1279.72 91.824C1276.13 101.008 1274.34 111.2 1274.34 122.4C1274.34 133.6 1276.13 143.792 1279.72 152.976C1283.52 162.16 1288.79 170.112 1295.51 176.832C1302.23 183.552 1310.18 188.704 1319.36 192.288C1328.55 195.872 1338.63 197.664 1349.6 197.664C1361.25 197.664 1372 195.424 1381.86 190.944C1391.72 186.24 1400.68 179.184 1408.74 169.776L1443.68 202.032C1432.48 215.696 1418.6 226.112 1402.02 233.28C1385.67 240.448 1367.19 244.032 1346.58 244.032ZM1526.87 240V49.152H1451.6V4.79998H1656.56V49.152H1581.3V240H1526.87Z" fill="#FFCC33"/>
</svg>
